<svg width="512" height="512" viewBox="0 0 512 512" fill="none" xmlns="http://www.w3.org/2000/svg">
<rect width="512" height="512" rx="76" fill="#FF8787"/>
<path d="M463 49C421.029 51.8856 126.166 79.963 105.553 282.123C103.049 303.732 101.63 325.438 100.698 347.161L245.682 202.324C250.748 197.258 258.975 197.258 264.041 202.324C269.107 207.39 269.107 215.601 264.041 220.667L53.7023 430.794C46.0992 438.389 46.0992 450.709 53.7023 458.304C61.3053 465.899 73.6338 465.899 81.2449 458.304L127.552 412.046C161.668 411.932 195.76 409.995 229.649 406.08C272.998 401.671 308.289 384.625 337.113 360.252H255.287L374.269 320.632C383.387 308.563 391.59 295.74 398.95 282.439H333.182L419.538 239.309C453.508 156.69 461.533 70.2851 463 49Z" fill="#233546"/>
</svg>
